<?xml version="1.0" encoding="UTF-8"?>
<!DOCTYPE svg PUBLIC "-//W3C//DTD SVG 1.1//EN" "http://www.w3.org/Graphics/SVG/1.1/DTD/svg11.dtd">
<!-- Creator: CorelDRAW -->
<svg xmlns="http://www.w3.org/2000/svg" xml:space="preserve" width="69.7012mm" height="49.8297mm" version="1.1" style="shape-rendering:geometricPrecision; text-rendering:geometricPrecision; image-rendering:optimizeQuality; fill-rule:evenodd; clip-rule:evenodd"
viewBox="0 0 2243.02 1603.55"
 xmlns:xlink="http://www.w3.org/1999/xlink"
 xmlns:xodm="http://www.corel.com/coreldraw/odm/2003">
 <defs>
  <style type="text/css">
   <![CDATA[
    .str0 {stroke:#373435;stroke-width:5.68;stroke-miterlimit:22.9256}
    .fil0 {fill:#373435}
   ]]>
  </style>
 </defs>
 <g id="Layer_x0020_1">
  <metadata id="CorelCorpID_0Corel-Layer"/>
  <g id="_1459147884832">
   <path class="fil0 str0" d="M560.66 919.03c39.01,1.91 7.16,-7.25 40.44,-18.1 14.59,-4.76 3.97,4.33 18.81,-10.15 4.7,-4.58 10.71,-9.09 14.59,-15.08l-0.11 -89.08c-27.94,-21.04 -292.98,-166.72 -347.41,-197.98 -21.89,-12.57 -35.65,-28.84 -56.32,-16.95 -11.21,6.45 -16.98,10.68 -27.93,17.12l-21.12 12.19c-8.87,7.05 -4.03,3.05 -7.14,7.47 61.98,39.96 258.02,147.98 333.23,189.8 81.57,45.35 38.83,35.67 52.96,120.75zm954.91 -466.62c39.01,1.91 7.16,-7.25 40.43,-18.1 14.59,-4.76 3.97,4.33 18.81,-10.15 4.7,-4.58 10.71,-9.1 14.59,-15.08l-0.12 -89.08c-27.94,-21.04 -292.97,-166.72 -347.41,-197.98 -21.89,-12.57 -35.65,-28.84 -56.32,-16.95 -11.21,6.45 -16.97,10.68 -27.92,17.12l-21.13 12.19c-8.86,7.05 -4.03,3.05 -7.13,7.47 61.98,39.96 258.01,147.98 333.23,189.8 81.56,45.35 38.83,35.67 52.96,120.75zm87.39 -158.06l90.23 -51.52c-15.55,-13.74 -42.38,-25.18 -71.55,-41.81l-197.01 -114.64c-17.03,-10.19 -33.3,-18.79 -49.46,-28.37 -63.85,-37.88 -39.13,-38.06 -119.62,10.43 -14.55,8.76 -17.09,1.88 -26.38,14.62 41.55,18.82 289.69,164.42 355.86,200.49 7.63,4.16 13.47,7.5 17.94,10.81zm104.17 -23.97l-90.4 51.62c0.51,6.31 0.55,14.08 0.49,23.98 -0.11,17.38 1.46,43.77 0.62,66.3 -49.73,28.96 -103.34,60.71 -129.99,78.54 -4.11,-20.23 -2.43,-58.92 -1.71,-83.27l-104.12 59.57 0.02 0.75 -0.01 74.69 -0.77 -0.45c-11.61,-6.79 -21.06,-10.32 -30.04,-11.03l0.01 -63.22 0.03 -0.97 -363.04 -216.87c-0.55,16.19 -0.86,37.2 -1.02,60.75 5.93,3.4 11.91,6.82 17.97,10.25 22.79,12.92 239.54,131.57 248.71,152.47 3.1,7.01 4.91,48.8 5.65,102.76 -4.89,3 -10.06,6.12 -15.56,9.35 -3.39,2 -8.25,4.81 -14.28,8.3l-0.01 -90.26 -90.4 51.62c0.5,6.31 0.55,14.08 0.49,23.98 -0.1,17.38 1.47,43.77 0.62,66.3 -49.73,28.95 -103.34,60.7 -129.99,78.53 -4.11,-20.23 -2.43,-58.92 -1.71,-83.27l-104.12 59.57 0.02 0.76 -0.02 74.75 -0.77 -0.45c-11.61,-6.79 -21.06,-10.32 -30.04,-11.03l0.01 -63.28 0.03 -0.98 -363.04 -216.87c-0.55,16.21 -0.86,37.24 -1.02,60.81 5.93,3.4 11.91,6.82 17.97,10.25 22.79,12.92 239.54,131.57 248.71,152.47 3.1,7.01 4.9,48.8 5.64,102.76 -4.89,3 -10.06,6.12 -15.55,9.35 -3.39,2 -8.26,4.81 -14.29,8.3l-0.01 -90.26 -90.4 51.62c0.51,6.31 0.55,14.08 0.49,23.98 -0.1,17.38 1.47,43.77 0.62,66.3 -49.73,28.95 -103.35,60.7 -129.99,78.53 -4.11,-20.23 -2.43,-58.92 -1.71,-83.27l-104.12 59.57 0.02 0.76 -0.06 338.1c10.35,-4.98 25.47,-14.99 53.3,-30.8l26.15 -14.86c-0.28,10.63 -0.54,21.73 -0.71,32.81 -21.68,12.17 -39.27,22.1 -49.77,28.24 -30.19,17.64 -38.28,26.84 -73.7,5.61 -43.07,-25.82 -82.3,-48.15 -126.54,-73.93 -43.33,-25.25 -82.92,-48.11 -126.17,-74.21 -23.18,-13.99 -113.03,-59.66 -120.88,-78.95 -11.03,-27.14 -3.31,-163.88 -3.31,-200.42 0,-4.76 -1.65,-180.18 0.5,-183.76 1.7,-2.84 4.18,-4.94 7,-6.19 0.25,-0.39 0.5,-0.74 0.77,-1.06 12.55,-15.49 214.06,-129.8 250.02,-150.96 79.47,-46.75 91.93,-70.05 137.3,-43.5 28.35,16.68 54.72,32.19 81.29,47.64 -0.08,-40.49 0.11,-77.65 1.08,-79.28 1.7,-2.84 4.18,-4.94 7,-6.19 0.25,-0.39 0.51,-0.74 0.77,-1.06 12.55,-15.5 214.06,-129.81 250.02,-150.96 79.47,-46.75 91.93,-70.05 137.3,-43.5 28.39,16.61 54.74,32.19 81.28,47.64 -0.08,-40.46 0.11,-77.59 1.08,-79.22 1.7,-2.84 4.18,-4.94 7,-6.19 0.25,-0.39 0.51,-0.74 0.77,-1.06 12.55,-15.49 214.06,-129.8 250.02,-150.96 79.47,-46.75 91.93,-70.05 137.29,-43.5 44.36,25.97 83.73,49.39 126.69,73.75 22.79,12.92 239.54,131.57 248.71,152.47 3.08,7.01 4.9,48.81 5.65,102.76 -4.89,3 -10.06,6.12 -15.57,9.36 -3.39,2 -8.25,4.82 -14.28,8.31l-0.01 -90.27zm-709.24 -50.5l368.89 220.37 113.88 -65.16c-6.75,-8.3 -18.68,-11.46 -31.48,-18.71 -18.02,-10.21 -31.13,-18.2 -49.62,-28.47l-300.11 -169.31c-17.01,5.26 -75.99,44.74 -101.56,61.29zm40.23 465.81c39.01,1.91 7.16,-7.25 40.43,-18.1 14.59,-4.76 3.97,4.33 18.81,-10.15 4.7,-4.58 10.72,-9.09 14.59,-15.08l-0.12 -89.08c-27.94,-21.04 -292.97,-166.72 -347.41,-197.98 -21.89,-12.57 -35.65,-28.84 -56.32,-16.95 -11.21,6.45 -16.98,10.68 -27.93,17.12l-21.12 12.19c-8.87,7.05 -4.03,3.05 -7.14,7.47 61.98,39.96 258.02,147.98 333.23,189.8 81.57,45.35 38.83,35.67 52.96,120.75zm87.4 -158.06l90.23 -51.52c-15.55,-13.74 -42.38,-25.18 -71.56,-41.81l-197.01 -114.64c-17.03,-10.19 -33.3,-18.79 -49.45,-28.37 -63.86,-37.88 -39.13,-38.06 -119.63,10.43 -14.55,8.76 -17.09,1.88 -26.38,14.62 41.55,18.82 289.69,164.42 355.86,200.49 7.63,4.16 13.47,7.5 17.94,10.81zm-605.07 -74.47l368.89 220.37 113.87 -65.16c-6.75,-8.3 -18.68,-11.46 -31.48,-18.71 -18.02,-10.21 -31.12,-18.2 -49.62,-28.47l-300.11 -169.32c-17.01,5.26 -75.99,44.74 -101.56,61.29zm127.62 307.81l90.23 -51.52c-15.55,-13.74 -42.38,-25.18 -71.56,-41.81l-197.01 -114.64c-17.03,-10.19 -33.3,-18.79 -49.45,-28.37 -63.85,-37.88 -39.13,-38.06 -119.63,10.43 -14.55,8.76 -17.09,1.88 -26.38,14.62 41.55,18.82 289.69,164.42 355.86,200.49 7.63,4.16 13.47,7.5 17.94,10.81zm-605.07 -74.47l368.89 220.37 113.87 -65.16c-6.75,-8.3 -18.68,-11.46 -31.47,-18.71 -18.02,-10.21 -31.13,-18.2 -49.62,-28.47l-300.11 -169.31c-17.01,5.26 -75.99,44.74 -101.56,61.29zm353.38 247.02l-363.04 -216.87c-2.53,74.83 -0.12,252.44 -0.11,309.04 0,42.02 -9.22,25.77 72.42,73.21l280.6 164.69c3.85,2.36 7.13,4.41 10.05,6.13l0.06 -335.22 0.03 -0.98z"/>
   <path class="fil0 str0" d="M1063.44 1213.87c39.01,1.91 7.16,-7.25 40.43,-18.1 14.59,-4.76 3.97,4.33 18.81,-10.15 4.7,-4.58 10.71,-9.09 14.59,-15.08l-0.11 -89.08c-27.94,-21.04 -292.98,-166.72 -347.41,-197.98 -21.89,-12.57 -35.65,-28.84 -56.32,-16.95 -11.21,6.45 -16.97,10.68 -27.92,17.12l-21.13 12.19c-8.86,7.05 -4.03,3.05 -7.14,7.47 61.98,39.96 258.02,147.98 333.23,189.8 81.57,45.35 38.83,35.67 52.97,120.75zm87.39 -158.06l90.23 -51.52c-15.55,-13.74 -42.38,-25.18 -71.55,-41.81l-197.02 -114.64c-17.03,-10.19 -33.3,-18.79 -49.45,-28.37 -63.85,-37.88 -39.13,-38.06 -119.63,10.43 -14.54,8.76 -17.09,1.88 -26.38,14.62 41.55,18.83 289.69,164.42 355.86,200.49 7.63,4.16 13.47,7.5 17.94,10.81zm104.17 -23.97l-90.4 51.62c0.51,6.31 0.55,14.08 0.49,23.98 -0.16,26.11 3.47,72.58 -3.01,95.72 -21.14,10.43 -9.46,-5.19 -30.14,14 -21.08,19.55 -7.7,-5.06 -30.83,17.49 -16.3,15.89 -14.04,4.74 -28.48,11.9 -8.47,4.2 -16.36,25.23 -30.53,18.64 -11.74,-5.47 -9.05,-63.63 -8.09,-96.18l-104.12 59.57 0.02 0.76 -0.06 338.1c10.35,-4.98 25.47,-14.99 53.3,-30.8l236.56 -134.46c22.25,-12.75 35.31,-10.54 35.31,-40.83l-0.04 -329.51zm-746.27 -54.67c1.7,-2.84 4.18,-4.94 7,-6.19 0.25,-0.39 0.51,-0.74 0.77,-1.06 12.55,-15.5 214.06,-129.81 250.02,-150.96 79.47,-46.75 91.93,-70.05 137.29,-43.5 44.36,25.97 83.73,49.39 126.69,73.75 22.79,12.92 239.54,131.57 248.71,152.47 9.58,21.83 7.01,380.51 -2.07,394.74 -10.34,16.2 -262.97,154.07 -318.3,186.4 -30.19,17.64 -38.27,26.84 -73.7,5.61 -43.07,-25.82 -82.3,-48.15 -126.54,-73.93 -43.33,-25.25 -82.92,-48.11 -126.17,-74.21 -23.18,-13.99 -113.03,-59.66 -120.88,-78.95 -11.03,-27.14 -3.31,-163.88 -3.31,-200.42 0,-4.76 -1.65,-180.18 0.5,-183.76zm37.03 4.17l368.89 220.37 113.88 -65.16c-6.76,-8.3 -18.68,-11.46 -31.48,-18.71 -18.02,-10.21 -31.13,-18.2 -49.62,-28.47l-300.11 -169.32c-17.01,5.26 -75.99,44.74 -101.56,61.29zm353.38 247.02l-363.04 -216.87c-2.53,74.83 -0.11,252.44 -0.11,309.04 0.01,42.02 -9.22,25.77 72.42,73.21l280.6 164.69c3.85,2.36 7.13,4.41 10.05,6.13l0.05 -335.22 0.03 -0.98z"/>
   <path class="fil0 str0" d="M1540.89 980.53c39.01,1.92 7.16,-7.25 40.43,-18.1 14.59,-4.76 3.97,4.33 18.81,-10.15 4.7,-4.58 10.71,-9.09 14.59,-15.08l-0.11 -89.08c-27.94,-21.04 -292.98,-166.72 -347.41,-197.98 -21.89,-12.57 -35.65,-28.84 -56.32,-16.95 -11.21,6.45 -16.98,10.68 -27.93,17.12l-21.12 12.19c-8.86,7.05 -4.03,3.05 -7.14,7.47 61.98,39.96 258.02,147.98 333.23,189.8 81.57,45.35 38.83,35.67 52.97,120.75zm87.39 -158.06l90.23 -51.52c-15.55,-13.74 -42.38,-25.18 -71.56,-41.81l-197.01 -114.64c-17.03,-10.19 -33.3,-18.79 -49.45,-28.37 -63.85,-37.88 -39.13,-38.06 -119.63,10.43 -14.55,8.76 -17.09,1.88 -26.38,14.62 41.55,18.83 289.69,164.42 355.86,200.49 7.63,4.16 13.47,7.49 17.94,10.8zm104.17 -23.97l-90.4 51.62c0.51,6.31 0.55,14.08 0.49,23.98 -0.16,26.11 3.47,72.58 -3.01,95.72 -21.14,10.43 -9.46,-5.19 -30.14,14 -21.08,19.55 -7.7,-5.06 -30.83,17.49 -16.3,15.89 -14.03,4.74 -28.48,11.9 -8.47,4.2 -16.36,25.23 -30.53,18.64 -11.74,-5.47 -9.05,-63.63 -8.09,-96.18l-104.12 59.57 0.02 0.76 -0.06 338.1c10.35,-4.98 25.47,-14.99 53.3,-30.8l236.57 -134.46c22.25,-12.75 35.31,-10.54 35.31,-40.83l-0.04 -329.51zm-746.27 -54.67c1.7,-2.85 4.18,-4.95 7,-6.19 0.25,-0.38 0.5,-0.73 0.77,-1.06 12.55,-15.5 214.06,-129.81 250.02,-150.96 79.47,-46.75 91.93,-70.05 137.3,-43.5 44.36,25.97 83.73,49.39 126.69,73.75 22.79,12.92 239.54,131.57 248.71,152.47 9.58,21.83 7.01,380.51 -2.08,394.74 -10.34,16.2 -262.97,154.07 -318.3,186.41 -30.19,17.64 -38.27,26.84 -73.7,5.61 -27.18,-16.3 -52.83,-31.2 -79.18,-46.46 0.29,-10.11 0.55,-20.78 0.78,-31.83l82.27 48.29c3.85,2.36 7.13,4.41 10.05,6.13l0.06 -335.22 0.03 -0.98 -363.04 -216.87c-0.55,16.21 -0.87,37.24 -1.02,60.81 -9.23,-5.3 -18.34,-10.56 -27.43,-15.85 -0.08,-40.49 0.11,-77.65 1.08,-79.27zm37.03 4.17l368.89 220.37 113.87 -65.16c-6.75,-8.3 -18.68,-11.46 -31.47,-18.71 -18.02,-10.21 -31.13,-18.2 -49.62,-28.47l-300.11 -169.32c-17.01,5.26 -75.99,44.74 -101.56,61.29z"/>
   <path class="fil0 str0" d="M2018.34 747.24c39.01,1.91 7.16,-7.25 40.43,-18.1 14.59,-4.76 3.97,4.33 18.81,-10.15 4.7,-4.58 10.72,-9.09 14.59,-15.08l-0.12 -89.08c-27.94,-21.04 -292.97,-166.72 -347.41,-197.98 -21.89,-12.57 -35.65,-28.84 -56.32,-16.95 -11.21,6.45 -16.98,10.68 -27.93,17.12l-21.12 12.19c-8.87,7.05 -4.03,3.05 -7.14,7.47 61.98,39.96 258.02,147.98 333.23,189.8 81.57,45.35 38.83,35.67 52.96,120.75zm87.4 -158.06l90.23 -51.52c-15.55,-13.74 -42.38,-25.18 -71.56,-41.81l-197.01 -114.64c-17.03,-10.19 -33.3,-18.79 -49.45,-28.37 -63.86,-37.88 -39.13,-38.06 -119.63,10.43 -14.55,8.76 -17.09,1.88 -26.38,14.62 41.55,18.82 289.69,164.42 355.86,200.49 7.63,4.16 13.47,7.5 17.94,10.81zm104.17 -23.97l-90.4 51.62c0.5,6.31 0.55,14.08 0.49,23.98 -0.16,26.11 3.47,72.58 -3.01,95.72 -21.14,10.43 -9.46,-5.19 -30.14,14 -21.08,19.55 -7.7,-5.06 -30.83,17.49 -16.3,15.89 -14.04,4.74 -28.48,11.9 -8.47,4.2 -16.36,25.23 -30.53,18.64 -11.75,-5.47 -9.05,-63.63 -8.09,-96.18l-104.12 59.57 0.02 0.76 -0.06 338.1c10.35,-4.98 25.47,-14.99 53.3,-30.8l236.56 -134.46c22.25,-12.75 35.31,-10.54 35.31,-40.83l-0.04 -329.51zm-746.27 -54.67c1.7,-2.84 4.18,-4.94 7,-6.19 0.25,-0.39 0.51,-0.74 0.77,-1.06 12.55,-15.5 214.06,-129.81 250.02,-150.96 79.47,-46.75 91.93,-70.05 137.3,-43.5 44.36,25.97 83.73,49.39 126.68,73.75 22.79,12.92 239.54,131.57 248.71,152.47 9.58,21.83 7.01,380.51 -2.07,394.74 -10.34,16.2 -262.97,154.07 -318.3,186.4 -30.19,17.64 -38.28,26.84 -73.7,5.61 -27.18,-16.3 -52.83,-31.2 -79.18,-46.46l0.01 -0.47 0.01 -0.48 0.01 -0.48 0.01 -0.48 0.02 -0.48 0.01 -0.48 0.02 -0.48 0.01 -0.48 0.01 -0.48 0.01 -0.48 0.01 -0.49 0.01 -0.47 0 -0.01 0.01 -0.48 0.01 -0.49 0.01 -0.48 0.01 -0.49 0.01 -0.49 0.02 -0.49 0.01 -0.49 0.01 -0.49 0.01 -0.49 0.02 -0.49 0.01 -0.49 0.01 -0.5 0.01 -0.49 0.01 -0.5 0.01 -0.49 0.01 -0.39 0 -0.11 0.01 -0.5 0.01 -0.5 0.01 -0.5 0.01 -0.5 0.01 -0.5 0.01 -0.5 0.01 -0.5 0.01 -0.5 0.01 -0.5 0.01 -0.51 0.01 -0.5 0.01 -0.51 0.01 -0.5 0.01 -0.51 0.01 -0.51 0.01 -0.29 0.04 -1.73 0.01 -0.51 0.01 -0.51 0.01 -0.51 0.01 -0.51 0.01 -0.51 0.01 -0.51 0.01 -0.51 0.01 -0.51 0.01 -0.51 0.01 -0.52 0.01 -0.51 0.01 -0.52 0 -0.19 0 -0.32 0.02 -0.52 0.01 -0.52 0.01 -0.52 0.01 -0.51 82.27 48.29c3.85,2.36 7.13,4.41 10.05,6.13l0.06 -335.22 0.03 -0.98 -363.04 -216.87c-0.55,16.19 -0.86,37.2 -1.02,60.75 -9.23,-5.3 -18.34,-10.57 -27.43,-15.86 -0.08,-40.46 0.11,-77.59 1.08,-79.22zm37.03 4.17l368.89 220.37 113.87 -65.16c-6.75,-8.3 -18.68,-11.46 -31.48,-18.71 -18.02,-10.21 -31.12,-18.2 -49.62,-28.47l-300.11 -169.32c-17.01,5.26 -75.99,44.74 -101.56,61.29z"/>
  </g>
 </g>
</svg>
