<?xml version="1.0" encoding="UTF-8"?>
<!DOCTYPE svg PUBLIC "-//W3C//DTD SVG 1.1//EN" "http://www.w3.org/Graphics/SVG/1.1/DTD/svg11.dtd">
<!-- Creator: CorelDRAW -->
<svg xmlns="http://www.w3.org/2000/svg" xml:space="preserve" width="60.8541mm" height="42.3587mm" version="1.1" style="shape-rendering:geometricPrecision; text-rendering:geometricPrecision; image-rendering:optimizeQuality; fill-rule:evenodd; clip-rule:evenodd"
viewBox="0 0 2699.47 1879.02"
 xmlns:xlink="http://www.w3.org/1999/xlink"
 xmlns:xodm="http://www.corel.com/coreldraw/odm/2003">
 <defs>
  <style type="text/css">
   <![CDATA[
    .fil0 {fill:#373435}
   ]]>
  </style>
 </defs>
 <g id="Layer_x0020_1">
  <metadata id="CorelCorpID_0Corel-Layer"/>
  <path class="fil0" d="M381.53 797.43c135.07,16.15 577.11,143.18 673.23,130.83 21.15,-10.66 163.15,-217.71 240.23,-321.04l5.53 1179.88 -916.66 -189.12 -2.34 -800.55zm966.14 -376.97l-4.68 -314.42 -768.62 150.25c111.65,33.12 713.54,163.57 766.5,165.66l6.8 -1.49zm83.01 -330.99l4.64 311.8 690.31 -151.02 -694.96 -160.78zm-1060.41 117.37c2.09,-0.76 4.28,-1.35 6.53,-1.79l1.26 -0.25c16.73,-4.13 37.25,-7.71 63.96,-12.5l979.55 -191.47c6.98,-1.36 13.89,-0.99 20.31,0.8l903.05 208.93c4.65,1.06 8.96,2.83 12.84,5.16l0.61 -0.09c35.94,16.91 221.35,282.13 268.4,347.25 32.77,45.37 77.9,76.75 72.21,145.92 -61.36,25.05 -222.79,54.09 -300.46,68.33 -2.52,133.19 17.63,820.32 -11.44,881.19 -24.81,17.23 12.1,-1.75 -20.71,10.41l-93.38 21.03c-179.67,36.44 -848.37,188.72 -921.63,189.26 -86.33,0.64 -416.27,-83.05 -526.4,-106.1 -69.57,-14.55 -495.39,-87.5 -515.69,-121.87 -25.8,-74.27 -2.73,-725.85 -8.34,-872.48 -408.18,-102.26 -387.54,19.18 -20.34,-498.23 33.35,-46.98 51.08,-62.73 89.67,-73.5zm1012.54 371.13c39.3,48.46 87.4,119.57 116.2,159.28 31.69,43.69 115.1,165.56 149,192.34 110.03,7.96 521.33,-110.57 669.3,-132.18l1.25 797.36c-27.8,12.5 -752.87,166.61 -930.07,197.45l-5.68 -1214.25zm957.05 -277.57c35.47,75 228.27,293.92 248.31,355.66l-908.38 188.74c-45.63,-47.63 -93.44,-125.42 -132.08,-177.32 -41.87,-56.22 -94.63,-117.66 -124.8,-176.13l916.95 -190.95zm-1972.73 -3.26l909.03 195.49c-23.5,61.25 -216.69,278.93 -249.52,359.02l-913.95 -199.74 254.44 -354.78z"/>
 </g>
</svg>
