<?xml version="1.0" encoding="UTF-8"?>
<!DOCTYPE svg PUBLIC "-//W3C//DTD SVG 1.1//EN" "http://www.w3.org/Graphics/SVG/1.1/DTD/svg11.dtd">
<!-- Creator: CorelDRAW -->
<svg xmlns="http://www.w3.org/2000/svg" xml:space="preserve" width="47.5705mm" height="44.1085mm" version="1.1" style="shape-rendering:geometricPrecision; text-rendering:geometricPrecision; image-rendering:optimizeQuality; fill-rule:evenodd; clip-rule:evenodd"
viewBox="0 0 483.22 448.05"
 xmlns:xlink="http://www.w3.org/1999/xlink"
 xmlns:xodm="http://www.corel.com/coreldraw/odm/2003">
 <defs>
  <style type="text/css">
   <![CDATA[
    .str0 {stroke:#373435;stroke-width:14.33;stroke-linecap:round;stroke-linejoin:round;stroke-miterlimit:22.9256}
    .fil0 {fill:none}
   ]]>
  </style>
 </defs>
 <g id="Layer_x0020_1">
  <metadata id="CorelCorpID_0Corel-Layer"/>
  <g id="_1459128815808">
   <polygon class="fil0 str0" points="237.5,7.17 7.8,34.08 7.17,315.34 330.17,378.89 475.43,301.7 476.05,22.46 "/>
   <polyline class="fil0 str0" points="168.64,347.12 169.35,39 324.27,13.56 "/>
   <polyline class="fil0 str0" points="7.8,34.08 330.97,48.67 330.15,379.19 "/>
   <polyline class="fil0 str0" points="140.11,18.58 410.15,32.73 409.4,337.05 "/>
   <line class="fil0 str0" x1="330.97" y1="48.67" x2="476.05" y2= "22.56" />
   <polyline class="fil0 str0" points="16.76,317.24 16.64,369.7 46.18,378.56 129.77,339.47 "/>
   <line class="fil0 str0" x1="45.88" y1="323.64" x2="46.18" y2= "378.56" />
   <polyline class="fil0 str0" points="97.63,333.14 67.97,347.55 68.02,327.31 "/>
   <polyline class="fil0 str0" points="144.34,342.33 144.17,392.45 168.52,399.65 248.52,366.42 "/>
   <line class="fil0 str0" x1="168.64" y1="347.12" x2="168.52" y2= "399.65" />
   <polyline class="fil0 str0" points="221.65,357.08 189.55,368.88 189.58,351.23 "/>
   <polyline class="fil0 str0" points="282.09,369.52 281.9,429.98 319.75,440.89 469.65,355.81 469.77,304.71 "/>
   <line class="fil0 str0" x1="320.52" y1="379.65" x2="319.75" y2= "440.89" />
   <polyline class="fil0 str0" points="437.35,322.08 437.29,347.49 356.46,391.21 356.42,365.4 "/>
   <polyline class="fil0 str0" points="11.39,123.25 333.95,146.91 475.85,116.18 "/>
   <polyline class="fil0 str0" points="8.32,227.09 327.38,263.95 475.62,215.99 "/>
  </g>
 </g>
</svg>
