<?xml version="1.0" encoding="UTF-8"?>
<!DOCTYPE svg PUBLIC "-//W3C//DTD SVG 1.1//EN" "http://www.w3.org/Graphics/SVG/1.1/DTD/svg11.dtd">
<!-- Creator: CorelDRAW -->
<svg xmlns="http://www.w3.org/2000/svg" xml:space="preserve" width="46.6375mm" height="46.6375mm" version="1.1" style="shape-rendering:geometricPrecision; text-rendering:geometricPrecision; image-rendering:optimizeQuality; fill-rule:evenodd; clip-rule:evenodd"
viewBox="0 0 842.6 842.6"
 xmlns:xlink="http://www.w3.org/1999/xlink"
 xmlns:xodm="http://www.corel.com/coreldraw/odm/2003">
 <defs>
  <style type="text/css">
   <![CDATA[
    .fil0 {fill:#1F1B20}
   ]]>
  </style>
 </defs>
 <g id="Warstwa_x0020_1">
  <metadata id="CorelCorpID_0Corel-Layer"/>
  <path class="fil0" d="M421.3 0c232.68,0 421.3,188.62 421.3,421.3 0,232.68 -188.62,421.3 -421.3,421.3 -232.68,0 -421.3,-188.62 -421.3,-421.3 0,-232.68 188.62,-421.3 421.3,-421.3zm-141.97 734.2c40.89,14.14 90.48,14.62 130.9,1.03 31.89,-10.72 64.56,-30.93 87.52,-55.66 49.56,-53.4 56.11,-110.29 56.11,-184.4 0,-56.99 -2.54,-120.14 0.41,-176.37 61.8,23.85 71.23,46.35 148.86,43.89 -0.19,-36.87 -0.25,-73.7 -0.78,-110.56 -71.07,-1.97 -137.34,-55.52 -151.13,-126.53l-0.56 0.17 -2.33 -28.29 -110.09 0.36c-2.58,20.71 -0.82,379.44 -0.78,425.95 0.07,76.06 -48.11,116.4 -113.66,101.33 -54.48,-12.52 -86.75,-77.09 -58.63,-130.52 9.17,-17.43 22.11,-31.64 42.7,-40.63 30.06,-13.13 38.01,-6.46 66.82,-5l0.41 -90.1 -0.87 -26.74c-39.69,-10.77 -99.12,5.41 -133.35,26.1 -56.66,34.25 -81.33,76.63 -98.58,138.01 -6.99,56.33 -2.21,104.12 27.79,151.63 25.04,39.66 64.97,71.02 109.24,86.33z"/>
 </g>
</svg>
