<?xml version="1.0" encoding="UTF-8"?>
<!DOCTYPE svg PUBLIC "-//W3C//DTD SVG 1.1//EN" "http://www.w3.org/Graphics/SVG/1.1/DTD/svg11.dtd">
<!-- Creator: CorelDRAW -->
<svg xmlns="http://www.w3.org/2000/svg" xml:space="preserve" width="46.6372mm" height="46.3081mm" version="1.1" style="shape-rendering:geometricPrecision; text-rendering:geometricPrecision; image-rendering:optimizeQuality; fill-rule:evenodd; clip-rule:evenodd"
viewBox="0 0 1453.69 1443.43"
 xmlns:xlink="http://www.w3.org/1999/xlink"
 xmlns:xodm="http://www.corel.com/coreldraw/odm/2003">
 <defs>
  <style type="text/css">
   <![CDATA[
    .fil0 {fill:#1F1B20}
   ]]>
  </style>
 </defs>
 <g id="Warstwa_x0020_1">
  <metadata id="CorelCorpID_0Corel-Layer"/>
  <path class="fil0" d="M1228.75 198.58c-5.51,-2.74 -3.83,-1.88 -8.44,-6.08 -2.45,-2.23 -3.33,-3.23 -5.84,-5.48 -28.05,-25.17 -60.73,-51.1 -92.96,-71.47 -38.27,-24.2 -78.95,-46.91 -124.64,-64.61 -108.7,-42.11 -193.88,-54.11 -327.54,-50.26 -18.08,8.35 -285.98,2.7 -503.55,262.75 -96.78,115.68 -160.58,275.19 -165.39,430.4 -8.93,288.37 134.41,527.19 360.82,660.67 59.59,35.13 182.08,85.87 251.91,88.93l-0.32 -507.43 -184.11 -0.02 0.46 -209.99 183.65 -0.33c7.9,-123.61 -28.81,-269.9 76.81,-371.55 74.89,-72.07 162.17,-74.25 260.5,-68.25 17.98,1.1 86.97,6.97 100,12.58l-0.31 177.51c-70.62,4.5 -148.55,-13.71 -188.69,42.02 -19.62,27.23 -21.01,55.84 -20.98,94.5 0.03,36.08 -1.94,77.8 0.32,113.48l201.37 0.12 -32.13 209.82 -169.55 0.38 -0.01 507.13c27.05,-1.18 81.94,-16.18 106.67,-24.48 96.91,-32.54 173.18,-73.89 251.52,-139.83 213.41,-179.61 307.89,-481.33 226.16,-757.33 -19.47,-65.73 -46.94,-126.52 -80.81,-180.19 -24.91,-39.47 -53.69,-77.83 -84.44,-110.39 -3.56,-3.77 -29.25,-28.35 -30.5,-32.62z"/>
 </g>
</svg>
