<?xml version="1.0" encoding="UTF-8"?>
<!DOCTYPE svg PUBLIC "-//W3C//DTD SVG 1.1//EN" "http://www.w3.org/Graphics/SVG/1.1/DTD/svg11.dtd">
<!-- Creator: CorelDRAW -->
<svg xmlns="http://www.w3.org/2000/svg" xml:space="preserve" width="46.6375mm" height="46.6375mm" version="1.1" style="shape-rendering:geometricPrecision; text-rendering:geometricPrecision; image-rendering:optimizeQuality; fill-rule:evenodd; clip-rule:evenodd"
viewBox="0 0 11936.69 11936.69"
 xmlns:xlink="http://www.w3.org/1999/xlink"
 xmlns:xodm="http://www.corel.com/coreldraw/odm/2003">
 <defs>
  <style type="text/css">
   <![CDATA[
    .fil0 {fill:#1F1B20}
   ]]>
  </style>
 </defs>
 <g id="Warstwa_x0020_1">
  <metadata id="CorelCorpID_0Corel-Layer"/>
  <path class="fil0" d="M5968.33 0c3296.25,0 5968.36,2672.1 5968.36,5968.33 0,3296.25 -2672.1,5968.36 -5968.36,5968.36 -3296.23,0 -5968.33,-2672.1 -5968.33,-5968.36 0,-3296.23 2672.1,-5968.33 5968.33,-5968.33zm-1673.53 2866.55c234.52,-23.01 534.03,-7.93 777,-7.93l2330.65 0c553.05,-0.15 840.43,146.63 1153.42,407.82 233.81,195.16 473.81,579.56 515.81,1030.72 21.65,232.27 6.25,534.29 6.25,775.62l0 2330.62c0.13,516.06 -151.98,870.91 -405.21,1149.84 -216.86,238.85 -565.1,474.47 -1029.34,516.93 -234.75,21.47 -530.53,6.78 -773.34,6.78l-2330.67 0c-536.67,0.03 -847.49,-137.67 -1151.09,-401.81 -242.13,-210.64 -476.5,-564.44 -522.59,-1022.43 -22.78,-226.15 -7.78,-2813.72 -7.81,-3112.36 -0.03,-266.31 21.17,-453.33 109.88,-677.85 71.49,-180.93 182.11,-361.83 295.31,-477.72 286.56,-293.21 579.87,-473.88 1031.74,-518.24zm3622.07 646.88c-599.86,122.09 -408.36,999.47 170.43,881.09 213.84,-43.74 404.88,-257.99 351.16,-527.2 -41.67,-208.49 -250.75,-409.03 -521.59,-353.9zm-2041.4 1253.75c704.18,-80.32 1262.12,462.37 1325.8,1080.22 72.02,699.3 -453.87,1252.37 -1068.6,1320.84 -705.67,78.52 -1266.63,-447.24 -1334.89,-1075.97 -76.86,-707.95 459.01,-1254.49 1077.69,-1325.08zm1999.94 1410.62c35.96,-295.39 -2.48,-579.08 -93.04,-831.59 -156.82,-437.44 -454.28,-797.5 -863.28,-1025.55 -202.76,-113.08 -440.07,-198.33 -716.78,-228.51 -1102.1,-120.19 -1965.8,701.8 -2078.39,1660.68 -130.71,1113.39 711.86,1988.8 1672.05,2091.29 603.83,64.5 1089.41,-157.28 1425.98,-440.36 304.45,-256.1 584.48,-659.8 653.46,-1225.96zm1920.83 1456.67c20.45,-296.33 4.48,-650.36 4.48,-954.35l0 -1918.78c0,-331.45 4.22,-572.01 -68.21,-883.22 -206.22,-885.91 -1036.07,-1673.5 -2088.67,-1736.8 -309.29,-18.61 -651.87,-5.4 -964.69,-5.4l-1908.72 0c-322.52,0 -585.91,-6.65 -888.54,68.72 -905.59,225.59 -1672.1,1021.43 -1741.46,2086.37 -19.89,304.99 -5.12,653.02 -5.12,962.61l0 1918.73c0,322.47 -6.94,584.04 69.75,887.44 231.04,914.06 1022.17,1659.81 2093.54,1734.98 299.84,21.04 658.04,4.1 964.1,4.1 636.21,0 1272.46,0 1908.69,0 324.69,0 586.04,7.88 889.08,-69.08 920.38,-233.7 1661.83,-1024.58 1735.78,-2095.33z"/>
 </g>
</svg>
